REM DIRINDEX 1\2,1\4,1\3\5,1\3\6,1\3\7
REM DIRNAME cjc082,folder01,folder02,folder03,folder04,folder05,folder06
TITLE ""
FILE "CD2Track49.mp3" MP3
  TRACK 01 AUDIO
    TITLE "0:"
    INDEX 01 00:00:00
  TRACK 02 AUDIO
    TITLE "5:cjc082_2227"
    INDEX 01 00:00:35
  TRACK 03 AUDIO
    TITLE "0:"
    INDEX 01 00:01:54
  TRACK 04 AUDIO
    TITLE "6:cjc082_2228"
    INDEX 01 00:02:28
  TRACK 05 AUDIO
    TITLE "0:"
    INDEX 01 00:03:47
  TRACK 06 AUDIO
    TITLE "5:cjc082_2229"
    INDEX 01 00:04:21
  TRACK 07 AUDIO
    TITLE "0:"
    INDEX 01 00:05:28
  TRACK 08 AUDIO
    TITLE "6:cjc082_2230"
    INDEX 01 00:06:02
  TRACK 09 AUDIO
    TITLE "0:"
    INDEX 01 00:09:02
  TRACK 10 AUDIO
    TITLE "5:cjc082_2231"
    INDEX 01 00:09:53
  TRACK 11 AUDIO
    TITLE "0:"
    INDEX 01 00:10:57
  TRACK 12 AUDIO
    TITLE "6:cjc082_2232"
    INDEX 01 00:11:35
  TRACK 13 AUDIO
    TITLE "0:"
    INDEX 01 00:13:08
  TRACK 14 AUDIO
    TITLE "5:cjc082_2233"
    INDEX 01 00:13:57
  TRACK 15 AUDIO
    TITLE "0:"
    INDEX 01 00:14:66
  TRACK 16 AUDIO
    TITLE "6:cjc082_2234"
    INDEX 01 00:15:40
  TRACK 17 AUDIO
    TITLE "0:"
    INDEX 01 00:16:34
  TRACK 18 AUDIO
    TITLE "5:cjc082_2235"
    INDEX 01 00:17:12
  TRACK 19 AUDIO
    TITLE "0:"
    INDEX 01 00:18:35
  TRACK 20 AUDIO
    TITLE "6:cjc082_2236"
    INDEX 01 00:19:07
  TRACK 21 AUDIO
    TITLE "0:"
    INDEX 01 00:20:18
  TRACK 22 AUDIO
    TITLE "5:cjc082_2237"
    INDEX 01 00:20:65
  TRACK 23 AUDIO
    TITLE "0:"
    INDEX 01 00:22:03
  TRACK 24 AUDIO
    TITLE "6:cjc082_2238"
    INDEX 01 00:22:54
  TRACK 25 AUDIO
    TITLE "0:"
    INDEX 01 00:25:60
  TRACK 26 AUDIO
    TITLE "5:cjc082_2239"
    INDEX 01 00:26:32
  TRACK 27 AUDIO
    TITLE "0:"
    INDEX 01 00:27:45
  TRACK 28 AUDIO
    TITLE "6:cjc082_2240"
    INDEX 01 00:28:19
  TRACK 29 AUDIO
    TITLE "0:"
    INDEX 01 00:29:64
  TRACK 30 AUDIO
    TITLE "5:cjc082_2241"
    INDEX 01 00:30:40
  TRACK 31 AUDIO
    TITLE "0:"
    INDEX 01 00:31:41
  TRACK 32 AUDIO
    TITLE "6:cjc082_2242"
    INDEX 01 00:32:17
  TRACK 33 AUDIO
    TITLE "0:"
    INDEX 01 00:34:06
  TRACK 34 AUDIO
    TITLE "5:cjc082_2243"
    INDEX 01 00:34:51
  TRACK 35 AUDIO
    TITLE "0:"
    INDEX 01 00:35:57
  TRACK 36 AUDIO
    TITLE "6:cjc082_2244"
    INDEX 01 00:36:33
  TRACK 37 AUDIO
    TITLE "0:"
    INDEX 01 00:37:44
  TRACK 38 AUDIO
    TITLE "5:cjc082_2245"
    INDEX 01 00:38:20
  TRACK 39 AUDIO
    TITLE "0:"
    INDEX 01 00:39:33
  TRACK 40 AUDIO
    TITLE "6:cjc082_2246"
    INDEX 01 00:40:09
  TRACK 41 AUDIO
    TITLE "0:"
    INDEX 01 00:41:34
  TRACK 42 AUDIO
    TITLE "5:cjc082_2247"
    INDEX 01 00:42:06
  TRACK 43 AUDIO
    TITLE "0:"
    INDEX 01 00:43:15
  TRACK 44 AUDIO
    TITLE "6:cjc082_2248"
    INDEX 01 00:43:64
  TRACK 45 AUDIO
    TITLE "0:"
    INDEX 01 00:45:33
  TRACK 46 AUDIO
    TITLE "5:cjc082_2249"
    INDEX 01 00:46:07
  TRACK 47 AUDIO
    TITLE "0:"
    INDEX 01 00:47:48
  TRACK 48 AUDIO
    TITLE "6:cjc082_2250"
    INDEX 01 00:48:18
  TRACK 49 AUDIO
    TITLE "0:"
    INDEX 01 00:50:17
  TRACK 50 AUDIO
    TITLE "5:cjc082_2251"
    INDEX 01 00:50:60
  TRACK 51 AUDIO
    TITLE "0:"
    INDEX 01 00:52:02
  TRACK 52 AUDIO
    TITLE "6:cjc082_2252"
    INDEX 01 00:52:47
  TRACK 53 AUDIO
    TITLE "0:"
    INDEX 01 00:54:13
  TRACK 54 AUDIO
    TITLE "5:cjc082_2253"
    INDEX 01 00:54:62
  TRACK 55 AUDIO
    TITLE "0:"
    INDEX 01 00:56:02
  TRACK 56 AUDIO
    TITLE "6:cjc082_2254"
    INDEX 01 00:56:53
  TRACK 57 AUDIO
    TITLE "0:"
    INDEX 01 00:58:11
  TRACK 58 AUDIO
    TITLE "7:cjc082_2255"
    INDEX 01 00:59:51
  TRACK 59 AUDIO
    TITLE "0:"
    INDEX 01 01:09:48
